{"title":"Gone.In.60.Seconds.2000.720p.BRRip.XViD.AC3-SIC","uid":6941265,"size":2537829145,"categoryP":"video","categoryS":"hd___movies","magnet":"?xt=urn:btih:5ffac842cfaa4d5c5003eae0486c0f17fc769684&amp;dn=Gone.In.60.Seconds.2000.720p.BRRip.XViD.AC3-SIC&amp;tr=udp%3A%2F%2Ftracker.openbittorrent.com%3A80&amp;tr=udp%3A%2F%2Fopen.demonii.com%3A1337&amp;tr=udp%3A%2F%2Ftracker.coppersurfer.tk%3A6969&amp;tr=udp%3A%2F%2Fexodus.desync.com%3A6969","seeders":0,"leechers":0,"uploader":"TvTeam","files":5,"time":1326040267,"description":". \n &lt;a href=&quot;\nhttp://www.torrenting.com&quot; rel=&quot;nofollow&quot; target=&quot;_NEW&quot;&gt;\nhttp://www.torrenting.com&lt;/a&gt;          :     Once &amp; For all ;)\n\n\n               www . Torrenting . Com \n\n(((((((((((((= Enjoy No RAR releases =))))))))))))))))))))\n\n\n...................................NFO:....................................\n\n.\n\n\n\n\n\nUUUUUUUUUUUUUUUUUUUUUUUU\nUUUUUUUUUUUUUUUUUUUUUUUUUUUUUU\nUUUUUUUUUUUUUUU\nUUUUUUUUU\nUUUUUU\nUUUUUUU\nUUUUUUUUUUU\nUUUUUUUUUUU\nUUUUUUUUUUUUUU\nUUUUUUUUUUU\nUUUUUUUUU\nUUUUUUUU\nUUUUUUUU\nUUUUUUUU\nUUUUUUUUU\nUUUUUUUUU\nUUUUUUUUU\nUUUUUUUUU\nUUUUUUUUUUUUUU\nUUUUUUUUUUUUUUUUUUUUUUUU\nUUUUUUUUUUUUUUUUUUUUUUUUUU\nUUUUUUUUU\n\n\n\n\n\n\n\n\n\n\nU?U?U?U?U?U?U?\n\nEAAUAA?EAAUAAAAAUEAAUAA?AAA?UAAUUAAAAAU\nEAA?  EAA?AAAAAA?EAA?        AAAAAA?\n  AAAU        \n              \nUAAAAAU      UAAAAAUAAAAAA?UAAAAAU        AAAAAA?\n            AAAAAA?UAAAAAUAAAAAA?        UAAAAAU\n                    \n                    \nAAAU      AAAU      AAAAAAAAAUAAAAAAAAAUAAAAAAAAAUAAAU  AAAU   AAAU   AAAAAAAAAU\n\nGone.In.60.Seconds.2000.720p.BRRip.XViD.AC3-SIC\n\nPoster:\n\nIMDB Link:\nwww.imdb.com/title/tt0187078/\n\nDescription:\nA retired master car thief must come back to the industry and steal 50 cars with \nhis crew in one night to save his brother's life. \n\nMediaInfo:\nFormat                           : AVI\nFormat/Info                      : Audio Video Interleave\nFormat profile                   : OpenDML\nFile size                        : 2.32 GiB\nDuration                         : 1h 57mn\nOverall bit rate                 : 2 822 Kbps\nWriting library                  : VirtualDub build 31536/release\n\nVideo\nID                               : 0\nFormat                           : MPEG-4 Visual\nFormat profile                   : Advanced Simple@L5\nFormat settings, BVOP            : 2\nFormat settings, QPel            : No\nFormat settings, GMC             : No warppoints\nFormat settings, Matrix          : Default (MPEG)\nMuxing mode                      : Packed bitstream\nCodec ID                         : XVID\nCodec ID/Hint                    : XviD\nDuration                         : 1h 57mn\nBit rate                         : 2 363 Kbps\nWidth                            : 1 280 pixels\nHeight                           : 544 pixels\nDisplay aspect ratio             : 2.35:1\nFrame rate                       : 23.976 fps\nColor space                      : YUV\nChroma subsampling               : 4:2:0\nBit depth                        : 8 bits\nScan type                        : Progressive\nCompression mode                 : Lossy\nBits/(Pixel*Frame)               : 0.142\nStream size                      : 1.95 GiB (84%)\nWriting library                  : XviD 64\n\nAudio\nID                               : 1\nFormat                           : AC-3\nFormat/Info                      : Audio Coding 3\nMode extension                   : CM (complete main)\nCodec ID                         : 2000\nDuration                         : 1h 57mn\nBit rate mode                    : Constant\nBit rate                         : 448 Kbps\nChannel(s)                       : 6 channels\nChannel positions                : Front: L C R, Side: L R, LFE\nSampling rate                    : 48.0 KHz\nBit depth                        : 16 bits\nCompression mode                 : Lossy\nStream size                      : 378 MiB (16%)\nAlignment                        : Split accross interleaves\nInterleave, duration             : 42 ms (1.00 video frame)\nInterleave, preload duration     : 500 ms\n\nScreenshots:\n\nNote : \nJust another fine release :P\n\nSource: \n720p DTS x264 DXVA-FLAWL3SS... Thanks \n\nEnjoy!\n\nRespects to 26K, T00NG0D, ELEKTRI4KA, PA, YeFsTe, Box, MrRep and everyone in the struggle...","torrent":{"xt":"urn:btih:5ffac842cfaa4d5c5003eae0486c0f17fc769684","amp;dn":"Gone.In.60.Seconds.2000.720p.BRRip.XViD.AC3-SIC","amp;tr":["udp%3A%2F%2Ftracker.openbittorrent.com%3A80","udp%3A%2F%2Fopen.demonii.com%3A1337","udp%3A%2F%2Ftracker.coppersurfer.tk%3A6969","udp%3A%2F%2Fexodus.desync.com%3A6969"],"infoHash":"5ffac842cfaa4d5c5003eae0486c0f17fc769684","infoHashBuffer":{"type":"Buffer","data":[95,250,200,66,207,170,77,92,80,3,234,224,72,108,15,23,252,118,150,132]},"announce":[],"urlList":[]}}